<svg xmlns="http://www.w3.org/2000/svg" viewBox="0 0 171.91 72.04"><defs><style>.cls-1{fill:#231815;}</style></defs><g id="레이어_2" data-name="레이어 2"><g id="레이어_1-2" data-name="레이어 1"><path class="cls-1" d="M43,54.67H33V32.87H10v21.8H0V2.92H10V24.19H33V2.92H43Z"/><path class="cls-1" d="M87.89,17.72,72.32,58.5Q67.15,72,57,72a18.86,18.86,0,0,1-5.94-.81v-8a9.54,9.54,0,0,0,4.57,1.12c2.93,0,5-1.5,6.29-4.5l2.25-5.27L49.32,17.72H60.19L68,41.94c.23.77.55,2.22,1,4.33h.14a28.42,28.42,0,0,1,1-4.26l8-24.29Z"/><path class="cls-1" d="M126.56,54.67h-9.77V49h-.18q-4.08,6.62-11.32,6.61-13,0-13-15.61V17.72h9.81V39q0,9,7,9a7,7,0,0,0,5.55-2.45,9.56,9.56,0,0,0,2.15-6.55V17.72h9.77Z"/><path class="cls-1" d="M171.91,54.67H159.79L146.67,36.49h-.1V54.67h-9.81V0h9.81V34.77h.1L159,17.72h11.85L156.48,35.23Z"/></g></g></svg>