<svg xmlns="http://www.w3.org/2000/svg" viewBox="0 0 174.98 74.04"><defs><style>.cls-1{fill:none;stroke:#231815;stroke-miterlimit:10;stroke-width:2px;}</style></defs><g id="레이어_2" data-name="레이어 2"><g id="레이어_1-2" data-name="레이어 1"><path class="cls-1" d="M44,55.67H34V33.87H11v21.8H1V3.92H11V25.19H34V3.92H44Z"/><path class="cls-1" d="M88.89,18.72,73.32,59.5Q68.15,73,58,73a18.86,18.86,0,0,1-5.94-.81v-8a9.54,9.54,0,0,0,4.57,1.12c2.93,0,5-1.5,6.29-4.5l2.25-5.27L50.32,18.72H61.19L69,42.94c.23.77.55,2.22,1,4.33h.14a28.42,28.42,0,0,1,1-4.26l8-24.29Z"/><path class="cls-1" d="M127.56,55.67h-9.77V50h-.18q-4.08,6.62-11.32,6.61-13,0-13-15.61V18.72h9.81V40q0,9,7,9a7,7,0,0,0,5.55-2.45,9.56,9.56,0,0,0,2.15-6.55V18.72h9.77Z"/><path class="cls-1" d="M172.91,55.67H160.79L147.67,37.49h-.1V55.67h-9.81V1h9.81V35.77h.1L160,18.72h11.85L157.48,36.23Z"/></g></g></svg>